<svg width="50" height="50" viewBox="0 0 50 50" fill="none" xmlns="http://www.w3.org/2000/svg">
<path d="M25 4.16667C36.5063 4.16667 45.8333 13.4938 45.8333 25C45.8333 36.5063 36.5063 45.8333 25 45.8333C21.6296 45.8378 18.3089 45.0212 15.325 43.4542L6.3875 45.7813C6.08887 45.859 5.77509 45.8574 5.47727 45.7766C5.17945 45.6957 4.90793 45.5385 4.68962 45.3204C4.4713 45.1023 4.31377 44.8309 4.23264 44.5331C4.15151 44.2354 4.14959 43.9216 4.22708 43.6229L6.55208 34.6875C4.98091 31.7004 4.16211 28.3751 4.16667 25C4.16667 13.4938 13.4938 4.16667 25 4.16667ZM27.6083 27.0833H18.2292L18.0167 27.0979C17.6427 27.1494 17.3 27.3345 17.0519 27.619C16.8038 27.9036 16.6671 28.2683 16.6671 28.6458C16.6671 29.0233 16.8038 29.3881 17.0519 29.6726C17.3 29.9572 17.6427 30.1423 18.0167 30.1938L18.2292 30.2083H27.6083L27.8188 30.1938C28.1927 30.1423 28.5354 29.9572 28.7835 29.6726C29.0316 29.3881 29.1683 29.0233 29.1683 28.6458C29.1683 28.2683 29.0316 27.9036 28.7835 27.619C28.5354 27.3345 28.1927 27.1494 27.8188 27.0979L27.6083 27.0833ZM31.7708 19.7917H18.2292L18.0167 19.8063C17.6427 19.8577 17.3 20.0428 17.0519 20.3274C16.8038 20.6119 16.6671 20.9767 16.6671 21.3542C16.6671 21.7317 16.8038 22.0964 17.0519 22.381C17.3 22.6655 17.6427 22.8506 18.0167 22.9021L18.2292 22.9167H31.7708L31.9833 22.9021C32.3573 22.8506 32.7 22.6655 32.9481 22.381C33.1962 22.0964 33.3329 21.7317 33.3329 21.3542C33.3329 20.9767 33.1962 20.6119 32.9481 20.3274C32.7 20.0428 32.3573 19.8577 31.9833 19.8063L31.7708 19.7917Z" fill="white"/>
</svg>
